<svg xmlns="http://www.w3.org/2000/svg" width="131" height="54"><path fill-rule="evenodd" fill="#222" d="M130.1 33.314c-.3.3-.64.59-1.02.87s-.67.48-.87.6c-.96.44-1.91.78-2.85 1.02-.94.24-1.83.58-2.67 1.02-.36.64-.86 1.49-1.5 2.55a31.47 31.47 0 01-2.13 3.09c-.78 1-1.6 1.86-2.46 2.58-.86.72-1.69 1.08-2.49 1.08-1.12 0-2.08-.32-2.88-.96-.6-.4-1.05-1.02-1.35-1.86-.3-.84-.48-1.75-.54-2.73a15.517 15.517 0 01-.006-1.656c-.434.589-.857 1.172-1.313 1.776-.741.98-1.451 1.88-2.13 2.7-.681.82-1.221 1.41-1.62 1.77-.48.56-1.001 1.08-1.56 1.56-.201.159-.471.3-.81.42-.341.12-.69.21-1.05.27-.36.06-.711.069-1.05.03-.341-.041-.611-.141-.81-.3-.681-.441-1.21-.971-1.59-1.59-.38-.62-.57-1.29-.57-2.01-.04-.73-.033-1.467-.005-2.207-.425.382-.867.781-1.345 1.217a45.246 45.246 0 01-4.2 3.39c-1.461 1.039-2.89 1.83-4.29 2.37-1.401.54-2.601.549-3.6.03-.921-.48-1.57-1.251-1.95-2.31-.381-1.06-.591-2.22-.63-3.48-.04-1.26.009-2.5.15-3.72.14-1.22.27-2.19.39-2.91-.081.08-.15.19-.21.33s-.13.27-.21.39c-.561.64-1.2 1.41-1.92 2.31-.72.9-1.51 1.73-2.37 2.49-.861.76-1.77 1.34-2.73 1.74-.96.4-1.941.42-2.94.06-.56-.32-1.05-.71-1.47-1.17a2.244 2.244 0 01-.356-.548 11.34 11.34 0 01-.394.518c-.84.92-1.63 1.73-2.37 2.43-.74.7-1.63 1.33-2.67 1.89-.48.24-1.01.45-1.59.63-.58.18-1.16.27-1.74.27-.58 0-1.13-.101-1.65-.3-.52-.201-.96-.561-1.32-1.08-.64-.8-.99-1.75-1.05-2.85-.06-1.1.13-2.23.57-3.39l-.36.36-.54.54-.57.57c-.18.18-.31.29-.39.33-.6.6-1.2 1.12-1.8 1.56-.6.44-1.22.82-1.86 1.14-.52.24-.97.38-1.35.42-.38.04-.73-.03-1.05-.21-.32-.18-.63-.45-.93-.81-.3-.36-.63-.78-.99-1.26a9.446 9.446 0 01-.973-1.703c-.157.259-.297.502-.466.773a77.48 77.48 0 01-2.52 3.78 33.442 33.442 0 01-2.97 3.63 27.35 27.35 0 01-3.24 2.94c-1.101.84-2.211 1.38-3.33 1.62-1 .24-1.92.369-2.76.39-.84.019-1.58-.291-2.22-.93-.6-.6-.939-1.461-1.02-2.58a16.79 16.79 0 01.15-3.57c.18-1.26.43-2.48.75-3.66.321-1.18.58-2.09.78-2.73.64-2.08 1.25-4.13 1.83-6.15a586.61 586.61 0 001.71-6.09c.6-1.8 1.149-3.65 1.65-5.55.5-1.9 1.01-3.61 1.53-5.13-.801-.04-1.62-.07-2.46-.09l-2.52-.06c-.84-.02-1.67-.07-2.49-.15-.819-.08-1.59-.22-2.31-.42-.639-.16-1.11-.42-1.41-.78-.3-.36-.44-.72-.42-1.08.021-.36.22-.67.6-.93.381-.26.93-.39 1.65-.39.441 0 1.161.04 2.16.12 1 .08 2.049.14 3.15.18 1.1.04 2.12.05 3.06.03.939-.02 1.55-.09 1.83-.21.12-.04.18-.1.18-.18a161.833 161.833 0 012.43-6.78c.26-.68.489-1.26.69-1.74.159-.36.489-.51.99-.45.5.06 1.02.23 1.56.51s1.01.63 1.41 1.05c.399.42.579.81.54 1.17-.12 1.04-.4 2.06-.84 3.06-.441 1-.82 2.14-1.14 3.42 2.52-.04 4.689-.07 6.51-.09 1.82-.02 3.59-.03 5.31-.03.56 0 1.119.01 1.68.03.56.02.99.07 1.29.15.3.08.369.19.21.33-.16.14-.681.33-1.56.57-2.52.8-4.96 1.41-7.32 1.83-2.361.42-4.68.73-6.96.93-.201.04-.291.08-.27.12.02.04-.03.16-.15.36 0 .04-.021.08-.06.12-.04.04-.06.08-.06.12a435.07 435.07 0 00-4.38 12.72c-.76 2.32-1.48 4.6-2.16 6.84-.681 2.24-1.26 4.27-1.74 6.09-.48 1.82-.831 3.339-1.05 4.56-.22 1.219-.231 1.969-.03 2.25.24.759.729.999 1.47.72.74-.281 1.599-.881 2.58-1.8.98-.921 2.01-2.04 3.09-3.36 1.08-1.32 2.109-2.62 3.09-3.9.98-1.28 1.83-2.44 2.55-3.48a87.075 87.075 0 011.43-2.027c.044-.124.072-.258.129-.373.24-.68.53-1.46.87-2.34.34-.88.69-1.76 1.05-2.64.36-.88.71-1.71 1.05-2.49.34-.78.63-1.41.87-1.89.28-.72.7-1.08 1.26-1.08s1.07.22 1.53.66c.46.44.81 1.02 1.05 1.74s.18 1.42-.18 2.1c-.2.48-.5 1.16-.9 2.04-.4.88-.81 1.79-1.23 2.73-.42.94-.79 1.83-1.11 2.67-.32.84-.5 1.46-.54 1.86 0 .88.17 1.34.51 1.38.34.04.8-.18 1.38-.66.58-.48 1.22-1.15 1.92-2.01.7-.86 1.41-1.77 2.13-2.73s1.39-1.89 2.01-2.79c.62-.9 1.15-1.63 1.59-2.19.56-1 1.03-1.89 1.41-2.67.38-.78.95-1.55 1.71-2.31.4-.16.88-.13 1.44.09.56.22 1.06.55 1.5.99.44.44.75.93.93 1.47.18.54.13 1.01-.15 1.41-.72.92-1.37 1.7-1.95 2.34-.58.64-1.13 1.46-1.65 2.46-.28.64-.6 1.35-.96 2.13-.36.78-.69 1.58-.99 2.4-.3.82-.54 1.62-.72 2.4-.18.78-.23 1.47-.15 2.07 0 .68.34.96 1.02.84.96-.16 2.02-.67 3.18-1.53 1.16-.86 2.3-1.84 3.42-2.94a83.128 83.128 0 001.513-1.527 13.37 13.37 0 01.677-2.523c.58-1.52 1.37-2.87 2.37-4.05.999-1.18 2.18-2.12 3.54-2.82 1.359-.7 2.82-.99 4.38-.87.44.08.89.19 1.35.33.459.14.849.39 1.17.75l.24.24c0-.08.02-.14.06-.18 0-.04.02-.06.06-.06 1.239-2.64 2.469-5.19 3.69-7.65 1.22-2.46 2.46-4.83 3.72-7.11 1.26-2.28 2.58-4.48 3.96-6.6a88.9 88.9 0 014.41-6.18c.879-1 1.59-1.44 2.13-1.32.54.12.939.53 1.2 1.23.26.7.41 1.53.45 2.49.039.96.02 1.74-.06 2.34-.6 2.48-1.41 4.96-2.43 7.44a91.256 91.256 0 01-3.45 7.41 130.125 130.125 0 01-4.14 7.35c-1.48 2.44-2.98 4.88-4.5 7.32-.201.24-.351.49-.45.75-.1.26-.19.55-.27.87-.081.36-.171.87-.27 1.53-.1.66-.16 1.35-.18 2.07-.021.72.03 1.38.15 1.98.12.6.339.98.66 1.14.48.24 1.179.19 2.1-.15.92-.34 1.899-.85 2.94-1.53a34.54 34.54 0 003.15-2.34c.469-.389.897-.768 1.307-1.141.096-.725.213-1.454.373-2.189.5-2.3 1.089-4.39 1.77-6.27.199-.56.48-1.14.84-1.74.36-.36.78-.46 1.26-.3.48.16.909.49 1.29.99.379.5.66 1.11.84 1.83.18.72.15 1.44-.09 2.16-.201.68-.381 1.33-.54 1.95a66.18 66.18 0 01-.54 1.95c-.081.32-.21.78-.39 1.38l-.57 1.89c-.201.66-.381 1.29-.54 1.89-.161.6-.261 1.06-.3 1.38-.081.6.079.76.48.48.399-.28.939-.76 1.62-1.44 1.639-1.68 3.199-3.31 4.68-4.89.91-.973 1.8-1.957 2.696-2.937a.898.898 0 01.123-.303c.081-.1.161-.17.24-.21.055-.027.12-.054.183-.082l.398-.432c.106-.395.213-.8.319-1.226.12-.48.3-.92.54-1.32.68-1.2 1.55-2.31 2.61-3.33 1.06-1.02 2.29-1.61 3.69-1.77.88-.16 1.69-.12 2.43.12.74.24 1.39.7 1.95 1.38.48.52.82 1.09 1.02 1.71.2.62.32 1.22.36 1.8.04.58.02 1.11-.06 1.59l-.18 1.08c.48-.04 1-.16 1.56-.36.56-.2 1.08-.36 1.56-.48.56-.16 1.15-.35 1.77-.57.62-.22 1.21-.39 1.77-.51.4 0 .56.11.48.33-.08.22-.27.48-.57.78zm-50.939-1.26c-.981.3-1.9.8-2.76 1.5-.861.7-1.581 1.5-2.16 2.4-.58.9-.87 1.71-.87 2.43l.12.18a316 316 0 014.11-3.21c1.38-1.06 2.81-2.11 4.29-3.15-.84-.4-1.75-.45-2.73-.15zm12.54-4.77c1.26-2.16 2.49-4.37 3.69-6.63 1.2-2.26 2.259-4.46 3.18-6.6.92-2.14 1.5-4.01 1.74-5.61a106.71 106.71 0 00-6.72 11.94c-1.96 4.08-3.681 8.3-5.16 12.66.92-1.68 2.01-3.6 3.27-5.76zm22.589 10.38c-.12.36-.2.83-.24 1.41-.04.58-.04 1.18 0 1.8.04.62.12 1.21.24 1.77s.28 1 .48 1.32c.4-.08.85-.37 1.35-.87.5-.5.98-1.07 1.44-1.71.46-.64.86-1.29 1.2-1.95.34-.66.57-1.21.69-1.65-.8.08-1.66.12-2.58.12-.92 0-1.78-.08-2.58-.24zm5.76-8.04c-.28-.32-.64-.5-1.08-.54a2.3 2.3 0 00-1.26.24c-.8.48-1.44 1.04-1.92 1.68-.48.64-.94 1.3-1.38 1.98 0 .2.04.34.12.42.4.36.58.76.54 1.2 0 .2.23.32.69.36.46.04.98.05 1.56.03.58-.02 1.14-.07 1.68-.15.54-.08.91-.12 1.11-.12.08 0 .16-.04.24-.12.08-.08.12-.16.12-.24.32-.76.47-1.6.45-2.52-.02-.92-.31-1.66-.87-2.22zm-16.859-3.54c-.281.28-.48.28-.6 0a6.806 6.806 0 01-1.02-2.52 4.97 4.97 0 01.24-2.64c.159-.52.51-.95 1.05-1.29.54-.34 1.029-.45 1.47-.33.24.08.499.21.78.39.279.18.459.39.54.63.279 1.08.129 2.12-.45 3.12-.581 1-1.251 1.88-2.01 2.64zm-77.728-13.53c-.581.98-1.251 1.88-2.01 2.7-.761.82-1.481 1.45-2.16 1.89-.321.24-.66.42-1.02.54-.36.12-.701.2-1.02.24-.321.04-.57.02-.75-.06-.18-.08-.231-.2-.15-.36a88.273 88.273 0 003.06-5.91c.48-1.02.879-1.97 1.2-2.85.319-.88.519-1.58.6-2.1.079-.44-.03-.68-.33-.72-.3-.04-.671 0-1.11.12-.761.24-1.671.62-2.73 1.14a30.23 30.23 0 00-3.12 1.77 18.55 18.55 0 00-2.7 2.1c-.78.74-1.251 1.43-1.41 2.07-.201.4-.251.78-.15 1.14.099.36.259.69.48.99.219.3.48.56.78.78.3.22.57.41.81.57 1.08.68 2.16 1.27 3.24 1.77s2.13 1.02 3.15 1.56 2.01 1.12 2.97 1.74c.96.62 1.86 1.37 2.7 2.25 1.279 1.36 2.089 2.86 2.43 4.5a8.97 8.97 0 01-.33 4.86c-.641 2-1.71 3.97-3.21 5.91a27.438 27.438 0 01-5.19 5.13c-1.961 1.48-4.011 2.619-6.15 3.42-2.141.799-4.151 1.08-6.03.84-1.92-.281-3.48-.921-4.68-1.92-1.2-1-2.001-2.4-2.4-4.2-.32-1.6-.3-3.12.06-4.56.36-1.44.96-2.76 1.8-3.96a16.38 16.38 0 013-3.24 17.111 17.111 0 013.66-2.34c.759-.4 1.539-.71 2.34-.93.799-.22 1.599-.39 2.4-.51.759-.16 1.14-.13 1.14.09s-.18.51-.54.87c-.36.36-.791.73-1.29 1.11l-.99.75c-1.481 1.04-2.861 2.31-4.14 3.81-1.281 1.5-2.321 3-3.12 4.5-.801 1.5-1.271 2.87-1.41 4.11-.141 1.24.21 2.12 1.05 2.64.679.44 1.639.47 2.88.09 1.239-.38 2.58-1.02 4.02-1.92 1.44-.9 2.91-1.98 4.41-3.24a48.04 48.04 0 004.11-3.87c1.239-1.32 2.259-2.59 3.06-3.81.799-1.22 1.239-2.25 1.32-3.09.12-.88-.06-1.63-.54-2.25-.48-.62-1.151-1.16-2.01-1.62a17 17 0 00-2.91-1.2c-1.08-.34-2.171-.66-3.27-.96a74.79 74.79 0 01-3.15-.93c-1.001-.32-1.841-.7-2.52-1.14-.761-.48-1.361-1.05-1.8-1.71a7.134 7.134 0 01-.96-2.07 7.445 7.445 0 01-.27-2.22c.019-.76.129-1.48.33-2.16.319-1.32 1.05-2.6 2.19-3.84a19.499 19.499 0 013.93-3.27 19.338 19.338 0 014.62-2.16c1.599-.5 3.039-.67 4.32-.51 1.2.2 2.199.54 3 1.02.799.48 1.399 1.3 1.8 2.46.279.96.279 1.98 0 3.06a11.98 11.98 0 01-1.29 3.09z"/></svg>